<svg id="_x31__x2C_5" enable-background="new 0 0 24 24" height="512" viewBox="0 0 24 24" width="512" xmlns="http://www.w3.org/2000/svg"><g id="XMLID_1_"><path d="m17.25 7.5c.41 0 .75.34.75.75s-.34.75-.75.75h-.75v-1.5z"/><path d="m17.25 9c.41 0 .75-.34.75-.75v1c0 .41-.34.75-.75.75s-.75-.34-.75-.75v-.25z"/><path d="m1.5 7.5h15v1.5h-15z"/><path d="m18 13.5c-.92 0-1.76.26-2.47.75h-1.03v-1.09c.8-.61 1.75-.99 2.77-1.12.24-.03.48-.04.73-.04 3.31 0 6 2.69 6 6s-2.69 6-6 6c-2.07 0-3.9-1.05-4.97-2.64-.65-.96-1.03-2.12-1.03-3.36 0-.41.34-.75.75-.75s.75.34.75.75c0 2.48 2.02 4.5 4.5 4.5s4.5-2.02 4.5-4.5-2.02-4.5-4.5-4.5z"/><path d="m16.69 15c0 .41-.33.75-.75.75h-2.19c.24 0 .47-.11.62-.32.33-.48.72-.87 1.16-1.18h.41c.42 0 .75.34.75.75z"/><path d="m13.75 12c.41 0 .75.34.75.75v.41c-.52.38-.98.85-1.37 1.41-.09.13-.13.28-.13.43v-2.25c0-.41.34-.75.75-.75z"/><path d="m15.53 14.25c-.44.31-.83.7-1.16 1.18-.15.21-.38.32-.62.32-.07 0-.13-.01-.19-.03-.03 0-.05-.01-.08-.02-.19-.08-.35-.23-.42-.42-.02-.04-.04-.08-.04-.13-.01-.05-.02-.1-.02-.15 0-.15.04-.3.13-.43.39-.56.85-1.03 1.37-1.41v1.09z"/><path d="m13.56 15.72c-.03 0-.05-.01-.08-.02.03.01.05.02.08.02z"/><circle cx="13" cy="5" r="1"/><path d="m13.02 15.15c0 .05.02.09.04.13-.02-.04-.04-.09-.04-.13z"/><path d="m10.25 15c.41 0 .75.34.75.75s-.34.75-.75.75h-8.75v-1.5z"/><circle cx="9" cy="5" r="1"/><circle cx="5" cy="5" r="1"/><path d="m1.5 15v1.5h-.25c-.41 0-.75-.34-.75-.75s.34-.75.75-.75z"/><path d="m1.5 7.5v1.5h-.75c-.41 0-.75-.34-.75-.75s.34-.75.75-.75z"/><path d="m15.25 1.5h-12.5c-.69 0-1.25.56-1.25 1.25v4.75h-.75c-.41 0-.75.34-.75.75v-5.5c0-1.52 1.23-2.75 2.75-2.75h12.5c1.52 0 2.75 1.23 2.75 2.75v5.5c0-.41-.34-.75-.75-.75h-.75v-4.75c0-.69-.56-1.25-1.25-1.25z"/><path d="m11.25 22.5c.41 0 .75.34.75.75s-.34.75-.75.75h-8.5c-1.52 0-2.75-1.23-2.75-2.75v-13c0 .41.34.75.75.75h.75v6h-.25c-.41 0-.75.34-.75.75s.34.75.75.75h.25v4.75c0 .69.56 1.25 1.25 1.25z"/></g></svg>